<?xml version="1.0"?><svg style="enable-background:new 0 0 1080 1080;" version="1.1" viewBox="0 0 1080 1080" xml:space="preserve" xmlns="http://www.w3.org/2000/svg" xmlns:xlink="http://www.w3.org/1999/xlink"><g id="_x30_1_Net"/><g id="_x30_2_Android"/><g id="Layer_3"/><g id="Layer_4"/><g id="Layer_5"/><g id="Layer_6"/><g id="Layer_7"/><g id="Layer_8"/><g id="Layer_9"><g><g><g><g><path d="       M804.944,309.517c-4.486,11.25-11.107,21.289-19.509,29.692c-15.807,15.807-37.666,25.561-61.804,25.561H179.572       c-48.275,0-87.437-39.09-87.437-87.366c0-24.137,9.755-45.997,25.633-61.732c15.807-15.878,37.666-25.633,61.804-25.633       h544.059c9.826,0,19.225,1.638,27.983,4.557c-0.641,4.842-0.926,9.826-0.926,14.81       C750.688,251.345,772.262,288.228,804.944,309.517z" style="fill:none;stroke:#2B4B9B;stroke-width:13;stroke-linecap:round;stroke-linejoin:round;stroke-miterlimit:10;"/><g><path d="        M217.623,277.382c0,20.325-16.514,36.839-36.839,36.839c-20.325,0-36.773-16.514-36.773-36.839        c0-20.325,16.447-36.773,36.773-36.773C201.109,240.609,217.623,257.056,217.623,277.382z" style="fill:none;stroke:#2B4B9B;stroke-width:13;stroke-linecap:round;stroke-linejoin:round;stroke-miterlimit:10;"/><path d="        M303.553,277.395c0,11.985-9.738,21.724-21.723,21.724c-11.986,0-21.684-9.738-21.684-21.724        c0-11.986,9.699-21.684,21.684-21.684C293.815,255.711,303.553,265.41,303.553,277.395z" style="fill:none;stroke:#2B4B9B;stroke-width:13;stroke-linecap:round;stroke-linejoin:round;stroke-miterlimit:10;"/><path d="        M378.216,277.395c0,11.985-9.738,21.724-21.723,21.724c-11.986,0-21.684-9.738-21.684-21.724        c0-11.986,9.699-21.684,21.684-21.684C368.478,255.711,378.216,265.41,378.216,277.395z" style="fill:none;stroke:#2B4B9B;stroke-width:13;stroke-linecap:round;stroke-linejoin:round;stroke-miterlimit:10;"/><path d="        M452.878,277.395c0,11.985-9.738,21.724-21.723,21.724c-11.986,0-21.684-9.738-21.684-21.724        c0-11.986,9.699-21.684,21.684-21.684C443.14,255.711,452.878,265.41,452.878,277.395z" style="fill:none;stroke:#2B4B9B;stroke-width:13;stroke-linecap:round;stroke-linejoin:round;stroke-miterlimit:10;"/><path d="        M572.779,247.328v60.106c0,10.363-8.357,18.721-18.654,18.721c-10.296,0-18.654-8.357-18.654-18.721v-60.106        c0-10.296,8.357-18.654,18.654-18.654c5.148,0,9.829,2.073,13.172,5.482C570.706,237.5,572.779,242.18,572.779,247.328z" style="fill:none;stroke:#2B4B9B;stroke-width:13;stroke-linecap:round;stroke-linejoin:round;stroke-miterlimit:10;"/><path d="        M652.608,247.328v60.106c0,10.363-8.357,18.721-18.654,18.721c-10.296,0-18.654-8.357-18.654-18.721v-60.106        c0-10.296,8.357-18.654,18.654-18.654c5.148,0,9.828,2.073,13.171,5.482C650.535,237.5,652.608,242.18,652.608,247.328z" style="fill:none;stroke:#2B4B9B;stroke-width:13;stroke-linecap:round;stroke-linejoin:round;stroke-miterlimit:10;"/><path d="        M732.437,247.328v60.106c0,10.363-8.357,18.721-18.654,18.721c-10.296,0-18.654-8.357-18.654-18.721v-60.106        c0-10.296,8.357-18.654,18.654-18.654c5.148,0,9.829,2.073,13.172,5.482C730.364,237.5,732.437,242.18,732.437,247.328z" style="fill:none;stroke:#2B4B9B;stroke-width:13;stroke-linecap:round;stroke-linejoin:round;stroke-miterlimit:10;"/></g></g><g><path d="       M811.031,525.663c0,24.136-9.762,45.999-25.608,61.778c-15.779,15.846-37.642,25.607-61.778,25.607h-544.1       c-48.272,0-87.385-39.112-87.385-87.385c0-24.136,9.762-45.999,25.607-61.778c15.779-15.846,37.642-25.607,61.778-25.607h544.1       C771.918,438.278,811.031,477.391,811.031,525.663z" style="fill:none;stroke:#2B4B9B;stroke-width:13;stroke-linecap:round;stroke-linejoin:round;stroke-miterlimit:10;"/><g><path d="        M217.623,525.63c0,20.325-16.514,36.839-36.839,36.839c-20.325,0-36.773-16.514-36.773-36.839        c0-20.325,16.447-36.773,36.773-36.773C201.109,488.857,217.623,505.304,217.623,525.63z" style="fill:none;stroke:#2B4B9B;stroke-width:13;stroke-linecap:round;stroke-linejoin:round;stroke-miterlimit:10;"/><path d="        M303.553,525.643c0,11.985-9.738,21.724-21.723,21.724c-11.986,0-21.684-9.738-21.684-21.724        c0-11.986,9.699-21.684,21.684-21.684C293.815,503.959,303.553,513.658,303.553,525.643z" style="fill:none;stroke:#2B4B9B;stroke-width:13;stroke-linecap:round;stroke-linejoin:round;stroke-miterlimit:10;"/><path d="        M378.216,525.643c0,11.985-9.738,21.724-21.723,21.724c-11.986,0-21.684-9.738-21.684-21.724        c0-11.986,9.699-21.684,21.684-21.684C368.478,503.959,378.216,513.658,378.216,525.643z" style="fill:none;stroke:#2B4B9B;stroke-width:13;stroke-linecap:round;stroke-linejoin:round;stroke-miterlimit:10;"/><path d="        M452.878,525.643c0,11.985-9.738,21.724-21.723,21.724c-11.986,0-21.684-9.738-21.684-21.724        c0-11.986,9.699-21.684,21.684-21.684C443.14,503.959,452.878,513.658,452.878,525.643z" style="fill:none;stroke:#2B4B9B;stroke-width:13;stroke-linecap:round;stroke-linejoin:round;stroke-miterlimit:10;"/><path d="        M572.779,495.576v60.106c0,10.364-8.357,18.721-18.654,18.721c-10.296,0-18.654-8.357-18.654-18.721v-60.106        c0-10.296,8.357-18.654,18.654-18.654c5.148,0,9.829,2.073,13.172,5.483C570.706,485.748,572.779,490.428,572.779,495.576z" style="fill:none;stroke:#2B4B9B;stroke-width:13;stroke-linecap:round;stroke-linejoin:round;stroke-miterlimit:10;"/><path d="        M652.608,495.576v60.106c0,10.364-8.357,18.721-18.654,18.721c-10.296,0-18.654-8.357-18.654-18.721v-60.106        c0-10.296,8.357-18.654,18.654-18.654c5.148,0,9.828,2.073,13.171,5.483C650.535,485.748,652.608,490.428,652.608,495.576z" style="fill:none;stroke:#2B4B9B;stroke-width:13;stroke-linecap:round;stroke-linejoin:round;stroke-miterlimit:10;"/><path d="        M732.437,495.576v60.106c0,10.364-8.357,18.721-18.654,18.721c-10.296,0-18.654-8.357-18.654-18.721v-60.106        c0-10.296,8.357-18.654,18.654-18.654c5.148,0,9.829,2.073,13.172,5.483C730.364,485.748,732.437,490.428,732.437,495.576z" style="fill:none;stroke:#2B4B9B;stroke-width:13;stroke-linecap:round;stroke-linejoin:round;stroke-miterlimit:10;"/></g></g><g><path d="       M811.031,773.911c0,24.136-9.762,45.999-25.608,61.778c-15.779,15.846-37.642,25.607-61.778,25.607h-544.1       c-48.272,0-87.385-39.112-87.385-87.385c0-24.136,9.762-45.999,25.607-61.778c15.779-15.846,37.642-25.607,61.778-25.607h544.1       C771.918,686.527,811.031,725.639,811.031,773.911z" style="fill:none;stroke:#2B4B9B;stroke-width:13;stroke-linecap:round;stroke-linejoin:round;stroke-miterlimit:10;"/><g><path d="        M217.623,773.878c0,20.325-16.514,36.839-36.839,36.839c-20.325,0-36.773-16.514-36.773-36.839        c0-20.325,16.447-36.773,36.773-36.773C201.109,737.105,217.623,753.553,217.623,773.878z" style="fill:none;stroke:#2B4B9B;stroke-width:13;stroke-linecap:round;stroke-linejoin:round;stroke-miterlimit:10;"/><path d="        M303.553,773.892c0,11.985-9.738,21.724-21.723,21.724c-11.986,0-21.684-9.738-21.684-21.724        c0-11.986,9.699-21.684,21.684-21.684C293.815,752.208,303.553,761.906,303.553,773.892z" style="fill:none;stroke:#2B4B9B;stroke-width:13;stroke-linecap:round;stroke-linejoin:round;stroke-miterlimit:10;"/><path d="        M378.216,773.892c0,11.985-9.738,21.724-21.723,21.724c-11.986,0-21.684-9.738-21.684-21.724        c0-11.986,9.699-21.684,21.684-21.684C368.478,752.208,378.216,761.906,378.216,773.892z" style="fill:none;stroke:#2B4B9B;stroke-width:13;stroke-linecap:round;stroke-linejoin:round;stroke-miterlimit:10;"/><path d="        M452.878,773.892c0,11.985-9.738,21.724-21.723,21.724c-11.986,0-21.684-9.738-21.684-21.724        c0-11.986,9.699-21.684,21.684-21.684C443.14,752.208,452.878,761.906,452.878,773.892z" style="fill:none;stroke:#2B4B9B;stroke-width:13;stroke-linecap:round;stroke-linejoin:round;stroke-miterlimit:10;"/><path d="        M572.779,743.825v60.106c0,10.363-8.357,18.721-18.654,18.721c-10.296,0-18.654-8.357-18.654-18.721v-60.106        c0-10.296,8.357-18.654,18.654-18.654c5.148,0,9.829,2.073,13.172,5.483C570.706,733.997,572.779,738.677,572.779,743.825z" style="fill:none;stroke:#2B4B9B;stroke-width:13;stroke-linecap:round;stroke-linejoin:round;stroke-miterlimit:10;"/><path d="        M652.608,743.825v60.106c0,10.363-8.357,18.721-18.654,18.721c-10.296,0-18.654-8.357-18.654-18.721v-60.106        c0-10.296,8.357-18.654,18.654-18.654c5.148,0,9.828,2.073,13.171,5.483C650.535,733.997,652.608,738.677,652.608,743.825z" style="fill:none;stroke:#2B4B9B;stroke-width:13;stroke-linecap:round;stroke-linejoin:round;stroke-miterlimit:10;"/><path d="        M732.437,743.825v60.106c0,10.363-8.357,18.721-18.654,18.721c-10.296,0-18.654-8.357-18.654-18.721v-60.106        c0-10.296,8.357-18.654,18.654-18.654c5.148,0,9.829,2.073,13.172,5.483C730.364,733.997,732.437,738.677,732.437,743.825z" style="fill:none;stroke:#2B4B9B;stroke-width:13;stroke-linecap:round;stroke-linejoin:round;stroke-miterlimit:10;"/></g></g><rect height="73.478" style="fill:none;stroke:#2B4B9B;stroke-width:13;stroke-linecap:round;stroke-linejoin:round;stroke-miterlimit:10;" width="328.546" x="287.323" y="364.8"/><rect height="73.478" style="fill:none;stroke:#2B4B9B;stroke-width:13;stroke-linecap:round;stroke-linejoin:round;stroke-miterlimit:10;" width="328.546" x="287.323" y="613.048"/></g><line style="fill:none;stroke:#2B4B9B;stroke-width:13;stroke-linecap:round;stroke-linejoin:round;stroke-miterlimit:10;" x1="451.596" x2="451.596" y1="907.429" y2="861.296"/><line style="fill:none;stroke:#2B4B9B;stroke-width:13;stroke-linecap:round;stroke-linejoin:round;stroke-miterlimit:10;" x1="730.332" x2="492.848" y1="948.681" y2="948.681"/><line style="fill:none;stroke:#2B4B9B;stroke-width:13;stroke-linecap:round;stroke-linejoin:round;stroke-miterlimit:10;" x1="410.344" x2="172.86" y1="948.681" y2="948.681"/><path d="     M492.848,948.681c0,22.799-18.453,41.319-41.252,41.319s-41.252-18.52-41.252-41.319c0-22.799,18.453-41.252,41.252-41.252     S492.848,925.882,492.848,948.681z" style="fill:none;stroke:#2B4B9B;stroke-width:13;stroke-linecap:round;stroke-linejoin:round;stroke-miterlimit:10;"/><path d="     M172.86,948.681c0,22.799-18.453,41.319-41.252,41.319s-41.252-18.52-41.252-41.319c0-22.799,18.453-41.252,41.252-41.252     S172.86,925.882,172.86,948.681z" style="fill:none;stroke:#2B4B9B;stroke-width:13;stroke-linecap:round;stroke-linejoin:round;stroke-miterlimit:10;"/><path d="     M812.836,948.681c0,22.799-18.453,41.319-41.252,41.319c-22.799,0-41.252-18.52-41.252-41.319     c0-22.799,18.453-41.252,41.252-41.252C794.382,907.429,812.836,925.882,812.836,948.681z" style="fill:none;stroke:#2B4B9B;stroke-width:13;stroke-linecap:round;stroke-linejoin:round;stroke-miterlimit:10;"/></g><path d="    M989.644,209.406c0,66.005-53.544,119.478-119.478,119.478c-24.067,0-46.424-7.12-65.222-19.367    c-32.682-21.289-54.256-58.172-54.256-100.111c0-4.984,0.285-9.968,0.926-14.81C758.876,135.641,809.216,90,870.166,90    C936.1,90,989.644,143.473,989.644,209.406z" style="fill:none;stroke:#2B4B9B;stroke-width:13;stroke-linecap:round;stroke-linejoin:round;stroke-miterlimit:10;"/><g><path d="     M959.882,209.478c0,0-40.158,54.114-89.715,54.114s-89.716-54.114-89.716-54.114s40.159-54.185,89.716-54.185     S959.882,209.478,959.882,209.478z" style="fill:none;stroke:#2B4B9B;stroke-width:13;stroke-linecap:round;stroke-linejoin:round;stroke-miterlimit:10;"/><circle cx="870.166" cy="209.442" r="22.643" style="fill:none;stroke:#2B4B9B;stroke-width:13;stroke-linecap:round;stroke-linejoin:round;stroke-miterlimit:10;"/></g></g></g><g id="Layer_10"/><g id="Layer_11"/><g id="Layer_12"/><g id="Layer_13"/><g id="Layer_14"/><g id="Layer_15"/><g id="Layer_16"/><g id="Layer_17"/><g id="Layer_18"/><g id="Layer_19"/><g id="Layer_20"/><g id="Layer_21"/></svg>